<svg xmlns="http://www.w3.org/2000/svg" version="1.1" viewBox="-5.0 -10.0 110.0 135.0">
 <path d="m50.66 29.434c-11.543-0.33203-21.344 8.8867-21.344 20.68 0.082032 11.129 8.6367 20.434 20.68 20.68 11.129 0.25 20.598-9.3867 20.598-20.68s-8.9727-20.348-19.934-20.68zm-0.83203 36.297c-8.9688-0.082031-15.363-7.1445-15.449-15.781-0.16797-8.3906 7.2266-15.531 15.699-15.449 7.9727-0.33203 15.613 6.6445 15.449 15.613-0.082032 8.8047-7.0586 15.617-15.699 15.617zm0.83203-36.297c-11.543-0.33203-21.344 8.8867-21.344 20.68 0.082032 11.129 8.6367 20.434 20.68 20.68 11.129 0.25 20.598-9.3867 20.598-20.68s-8.9727-20.348-19.934-20.68zm-0.83203 36.297c-8.9688-0.082031-15.363-7.1445-15.449-15.781-0.16797-8.3906 7.2266-15.531 15.699-15.449 7.9727-0.33203 15.613 6.6445 15.449 15.613-0.082032 8.8047-7.0586 15.617-15.699 15.617zm0.83203-36.297c-11.543-0.33203-21.344 8.8867-21.344 20.68 0.082032 11.129 8.6367 20.434 20.68 20.68 11.129 0.25 20.598-9.3867 20.598-20.68s-8.9727-20.348-19.934-20.68zm-0.83203 36.297c-8.9688-0.082031-15.363-7.1445-15.449-15.781-0.16797-8.3906 7.2266-15.531 15.699-15.449 7.9727-0.33203 15.613 6.6445 15.449 15.613-0.082032 8.8047-7.0586 15.617-15.699 15.617zm0.83203-36.297c-11.543-0.33203-21.344 8.8867-21.344 20.68 0.082032 11.129 8.6367 20.434 20.68 20.68 11.129 0.25 20.598-9.3867 20.598-20.68s-8.9727-20.348-19.934-20.68zm-0.83203 36.297c-8.9688-0.082031-15.363-7.1445-15.449-15.781-0.16797-8.3906 7.2266-15.531 15.699-15.449 7.9727-0.33203 15.613 6.6445 15.449 15.613-0.082032 8.8047-7.0586 15.617-15.699 15.617zm0.83203-36.297c-11.543-0.33203-21.344 8.8867-21.344 20.68 0.082032 11.129 8.6367 20.434 20.68 20.68 11.129 0.25 20.598-9.3867 20.598-20.68s-8.9727-20.348-19.934-20.68zm-0.83203 36.297c-8.9688-0.082031-15.363-7.1445-15.449-15.781-0.16797-8.3906 7.2266-15.531 15.699-15.449 7.9727-0.33203 15.613 6.6445 15.449 15.613-0.082032 8.8047-7.0586 15.617-15.699 15.617zm0.83203-36.297c-11.543-0.33203-21.344 8.8867-21.344 20.68 0.082032 11.129 8.6367 20.434 20.68 20.68 11.129 0.25 20.598-9.3867 20.598-20.68s-8.9727-20.348-19.934-20.68zm-0.83203 36.297c-8.9688-0.082031-15.363-7.1445-15.449-15.781-0.16797-8.3906 7.2266-15.531 15.699-15.449 7.9727-0.33203 15.613 6.6445 15.449 15.613-0.082032 8.8047-7.0586 15.617-15.699 15.617zm0.83203-36.297c-11.543-0.33203-21.344 8.8867-21.344 20.68 0.082032 11.129 8.6367 20.434 20.68 20.68 11.129 0.25 20.598-9.3867 20.598-20.68s-8.9727-20.348-19.934-20.68zm-0.83203 36.297c-8.9688-0.082031-15.363-7.1445-15.449-15.781-0.16797-8.3906 7.2266-15.531 15.699-15.449 7.9727-0.33203 15.613 6.6445 15.449 15.613-0.082032 8.8047-7.0586 15.617-15.699 15.617zm0.83203-36.297c-11.543-0.33203-21.344 8.8867-21.344 20.68 0.082032 11.129 8.6367 20.434 20.68 20.68 11.129 0.25 20.598-9.3867 20.598-20.68s-8.9727-20.348-19.934-20.68zm-0.83203 36.297c-8.9688-0.082031-15.363-7.1445-15.449-15.781-0.16797-8.3906 7.2266-15.531 15.699-15.449 7.9727-0.33203 15.613 6.6445 15.449 15.613-0.082032 8.8047-7.0586 15.617-15.699 15.617zm0.83203-36.297c-11.543-0.33203-21.344 8.8867-21.344 20.68 0.082032 11.129 8.6367 20.434 20.68 20.68 11.129 0.25 20.598-9.3867 20.598-20.68s-8.9727-20.348-19.934-20.68zm-0.83203 36.297c-8.9688-0.082031-15.363-7.1445-15.449-15.781-0.16797-8.3906 7.2266-15.531 15.699-15.449 7.9727-0.33203 15.613 6.6445 15.449 15.613-0.082032 8.8047-7.0586 15.617-15.699 15.617zm0.83203-36.297c-11.543-0.33203-21.344 8.8867-21.344 20.68 0.082032 11.129 8.6367 20.434 20.68 20.68 11.129 0.25 20.598-9.3867 20.598-20.68s-8.9727-20.348-19.934-20.68zm-0.83203 36.297c-8.9688-0.082031-15.363-7.1445-15.449-15.781-0.16797-8.3906 7.2266-15.531 15.699-15.449 7.9727-0.33203 15.613 6.6445 15.449 15.613-0.082032 8.8047-7.0586 15.617-15.699 15.617zm0.83203-36.297c-11.543-0.33203-21.344 8.8867-21.344 20.68 0.082032 11.129 8.6367 20.434 20.68 20.68 11.129 0.25 20.598-9.3867 20.598-20.68s-8.9727-20.348-19.934-20.68zm-0.83203 36.297c-8.9688-0.082031-15.363-7.1445-15.449-15.781-0.16797-8.3906 7.2266-15.531 15.699-15.449 7.9727-0.33203 15.613 6.6445 15.449 15.613-0.082032 8.8047-7.0586 15.617-15.699 15.617zm0.83203-36.297c-11.543-0.33203-21.344 8.8867-21.344 20.68 0.082032 11.129 8.6367 20.434 20.68 20.68 11.129 0.25 20.598-9.3867 20.598-20.68s-8.9727-20.348-19.934-20.68zm-0.83203 36.297c-8.9688-0.082031-15.363-7.1445-15.449-15.781-0.16797-8.3906 7.2266-15.531 15.699-15.449 7.9727-0.33203 15.613 6.6445 15.449 15.613-0.082032 8.8047-7.0586 15.617-15.699 15.617zm0.83203-36.297c-11.543-0.33203-21.344 8.8867-21.344 20.68 0.082032 11.129 8.6367 20.434 20.68 20.68 11.129 0.25 20.598-9.3867 20.598-20.68s-8.9727-20.348-19.934-20.68zm-0.83203 36.297c-8.9688-0.082031-15.363-7.1445-15.449-15.781-0.16797-8.3906 7.2266-15.531 15.699-15.449 7.9727-0.33203 15.613 6.6445 15.449 15.613-0.082032 8.8047-7.0586 15.617-15.699 15.617zm0.83203-36.297c-11.543-0.33203-21.344 8.8867-21.344 20.68 0.082032 11.129 8.6367 20.434 20.68 20.68 11.129 0.25 20.598-9.3867 20.598-20.68s-8.9727-20.348-19.934-20.68zm-0.83203 36.297c-8.9688-0.082031-15.363-7.1445-15.449-15.781-0.16797-8.3906 7.2266-15.531 15.699-15.449 7.9727-0.33203 15.613 6.6445 15.449 15.613-0.082032 8.8047-7.0586 15.617-15.699 15.617zm0.83203-36.297c-11.543-0.33203-21.344 8.8867-21.344 20.68 0.082032 11.129 8.6367 20.434 20.68 20.68 11.129 0.25 20.598-9.3867 20.598-20.68s-8.9727-20.348-19.934-20.68zm-0.83203 36.297c-8.9688-0.082031-15.363-7.1445-15.449-15.781-0.16797-8.3906 7.2266-15.531 15.699-15.449 7.9727-0.33203 15.613 6.6445 15.449 15.613-0.082032 8.8047-7.0586 15.617-15.699 15.617zm0.83203-36.297c-11.543-0.33203-21.344 8.8867-21.344 20.68 0.082032 11.129 8.6367 20.434 20.68 20.68 11.129 0.25 20.598-9.3867 20.598-20.68s-8.9727-20.348-19.934-20.68zm-0.83203 36.297c-8.9688-0.082031-15.363-7.1445-15.449-15.781-0.16797-8.3906 7.2266-15.531 15.699-15.449 7.9727-0.33203 15.613 6.6445 15.449 15.613-0.082032 8.8047-7.0586 15.617-15.699 15.617zm38.039-25.418c-3.1562-0.41406-5.8984-1.0781-6.7266-4.7344-0.16797-0.83203-0.5-1.4102 0.082031-2.2422 1.1641-1.8281 2.0781-3.8203 3.3203-5.5664 1.1641-1.6602 0.83203-2.9062-0.5-4.2344-1.9102-1.7461-3.6562-3.5703-5.5664-5.3984-4.2344-4.0703-3.8203-4.8164-9.3008-0.91406-2.1602 1.4961-4.2344 2.8242-6.8125 0.83203-0.082031-0.082032-0.33203-0.16797-0.5-0.16797-0.99609 0.082031-1.2461-0.5-1.4102-1.4102-0.41406-2.0781-0.91406-4.2344-1.4961-6.3125-0.33203-1.4102-0.83203-2.7422-2.6562-2.7422-4.1523-0.082031-8.2227-0.082031-12.375 0-1.4961 0-2.3242 0.74609-2.6562 2.1602-0.58203 2.1602-0.99609 4.4023-1.5781 6.5625-0.16797 0.58203-0.16797 1.4102-0.91406 1.7422-4.3203 1.9102-4.3203 1.9102-8.3867-0.74609-0.91406-0.58203-1.7461-1.0781-2.5742-1.6602-1.4961-1.1641-2.8242-1.0781-4.1523 0.25-2.6562 2.6562-5.3984 5.3164-8.1406 7.9727-1.1641 1.1641-1.2461 2.4102-0.41406 3.8203 0.74609 1.3281 1.4961 2.6562 2.4102 3.9023 1.2461 1.8281 1.7461 3.4062 0.58203 5.6484-0.83203 1.6602-1.6602 2.6562-3.4883 2.8242-1.3281 0.16797-2.7422 0.58203-4.0703 0.83203-1.9102 0.25-2.9062 1.2461-2.9883 3.1562-0.16797 4.0703 0 8.0586 0 12.125 0 1.9922 1.0781 2.9062 2.9062 3.2383 1.6602 0.33203 3.4062 0.58203 5.0664 0.83203 1.1641 0.25 1.6602 0.83203 2.2422 1.9102 1.8281 2.9922 0.99609 5.3164-0.91406 7.6406-0.66406 0.91406-1.1641 1.8281-1.7461 2.7422-0.33203 0.5-0.66406 0.99609-0.5 1.5781-0.082031 0.91406 0.5 1.4961 0.99609 2.0781 2.7422 2.6562 5.4805 5.3164 8.0586 8.0586 1.3281 1.3281 2.5742 1.4102 4.0703 0.41406 1.9102-1.2461 3.8203-2.4102 5.6484-3.6562 0.5-0.41406 0.91406-0.58203 1.4961-0.25 4.7344 2.0781 4.7344 1.9922 5.8984 7.0586 0.16406 0.74609 0.33203 1.4961 0.5 2.2422 0.33203 1.7422 1.2461 2.7422 3.0742 2.7422 3.8203-0.082031 7.6406-0.082031 11.461-0.082031 1.6602 0.082031 2.5742-0.74609 2.9883-2.3242 0.41406-1.9922 0.99609-3.9883 1.3281-5.9805 0.25-1.1641 0.91406-1.6602 1.9102-2.2422 2.8242-1.8281 5.1484-1.3281 7.4766 0.74609 0.66406 0.66406 1.5781 1.0781 2.3242 1.5781 1.9102 1.2461 2.7422 1.2461 4.4023-0.33203 2.7422-2.6562 5.3984-5.3984 8.1406-8.0547 1.1641-1.1641 1.1641-2.2422 0.33203-3.5703-1.2461-1.9922-2.4102-3.9023-3.4883-5.8984-0.25-0.41406-0.74609-0.74609-0.41406-1.4102 1.1641-2.4922 1.8281-5.5664 5.6484-5.3984 0.74609 0.082031 1.4961-0.25 2.2422-0.33203 3.0742-0.58203 3.7383-1.3281 3.8203-4.4844v-8.8867c-0.003907-4.4102-0.33594-4.9922-4.6562-5.6562zm-2.8242 14.703c-0.99609 0.082031-1.9102 0.33203-2.9062 0.41406-2.4922 0.25-4.0703 1.4102-4.4844 4.0703-0.25 1.6602-0.99609 3.1562-1.8281 4.5664-0.74609 1.0781-0.74609 2.1602 0.082031 3.1562 0.5 0.66406 0.83203 1.4961 1.2461 2.1602 0.74609 1.4961 2.3242 3.0742 2.0781 4.3203-0.16797 1.3281-2.0781 2.4102-3.3242 3.5703-2.4102 2.3242-2.4102 2.3242-5.2344 0.5-1.1641-0.74609-2.2422-1.4961-3.3242-2.2422-0.5-0.41406-1.0781-0.5-1.7422-0.66406-0.41406 0.16406-0.91406 0.41406-1.4141 0.66406-1.9922 1.0781-3.9883 2.1602-6.1445 2.5742-1.3281 0.33203-1.9102 1.1641-2.1602 2.4102-0.41016 1.9922-0.99219 3.9844-1.4062 5.9766-0.16406 0.91406-0.41406 1.2461-1.4102 1.2461-2.0781-0.16797-4.1523-0.082031-6.1445 0-0.99609 0-1.2461-0.33203-1.4141-1.1641-0.41406-1.9102-0.74609-3.7383-1.1641-5.6484-0.33203-1.4102-0.99609-2.6562-2.5742-2.9062-2.2422-0.41406-4.2344-1.4141-6.1445-2.5742-1.3281-0.83203-2.4102-0.58203-3.4883 0.16406-1.6602 1.1641-3.3203 2.2422-4.8984 3.4062-0.74609 0.5-1.2461 0.41406-1.8281-0.16797-1.4102-1.4961-2.8242-2.9883-4.4023-4.4023-0.74609-0.66406-0.58203-1.2461-0.082031-1.9102 0.99609-1.6602 1.9102-3.3203 3.0742-4.8984 0.74609-1.0781 0.83203-2.1602 0.16797-3.4062-1.0781-1.8281-1.9102-3.8203-2.4102-5.9805-0.25-1.4141-1.0781-2.3242-2.7422-2.4922-1.7461-0.25-3.4883-0.83203-5.2344-0.99609-1.1641-0.16406-1.25-0.66016-1.25-1.5742 0.082032-1.9922 0.16797-3.9023 0-5.8125-0.16797-1.7461 0.66406-2.1602 2.0781-2.4102 1.7461-0.33203 3.4883-0.83203 5.2344-1.0781 1.0781-0.16406 1.4961-0.74609 1.7461-1.7422 0.58203-2.1602 1.4102-4.2344 2.5742-6.0625 0.74609-1.1641 0.66406-2.1602 0-3.2383-1.0781-1.8281-2.0781-3.6562-3.2383-5.4805-0.66406-0.91406-0.5-1.4961 0.33203-2.1602 1.0781-0.91406 2.1602-1.8281 2.9883-2.9883 1.4141-1.9922 2.6562-1.7461 4.3203-0.41406 1.1641 0.99609 2.5742 1.7461 3.8203 2.5742 0.99609 0.66406 2.0781 0.74609 3.0742 0.082031 1.8281-1.0781 3.9023-1.9102 5.9805-2.4102 1.4141-0.33203 2.3242-1.1641 2.5742-2.6562 0.33203-1.9922 0.99609-3.8203 1.3281-5.8125 0.16406-0.91406 0.5-1.2461 1.4961-1.1641 2.0781 0.082032 4.2344 0.082032 6.3125 0 0.99609-0.082031 1.2461 0.33203 1.4102 1.0781 0.41406 1.9922 0.99609 3.8203 1.3281 5.8125 0.33203 1.4961 1.0781 2.3242 2.5742 2.6562 2.0781 0.5 3.9883 1.3281 5.7305 2.4922 0.99609 0.58203 1.9922 0.58203 3.0742-0.16797 1.7422-1.1641 3.4883-2.2422 5.2305-3.4883 0.74609-0.5 1.0781-0.5 1.7461 0.16797 1.4102 1.4961 2.9062 2.9883 4.4844 4.4023 0.83203 0.74609 0.74609 1.3281 0.25 2.1602-1.0781 1.6602-2.0781 3.4883-3.1562 5.2344-0.66406 1.1641-0.74609 2.2422 0.082031 3.4062 1.0781 1.5781 1.9102 3.4883 2.3242 5.3984 0.41406 1.5781 1.4141 2.3242 2.9062 2.5742 1.4961 0.25 2.9062 0.66406 4.3203 0.83203 1.6602 0.082032 2.4102 0.66406 2.1602 2.4102-0.16406 1.4961-0.16406 2.9883 0 4.4844 0.41406 2.1523-0.58203 3.0625-2.5781 3.1484zm-34.383-25.582c-11.543-0.33203-21.344 8.8867-21.344 20.68 0.082032 11.129 8.6367 20.434 20.68 20.68 11.129 0.25 20.598-9.3867 20.598-20.68s-8.9727-20.348-19.934-20.68zm-0.83203 36.297c-8.9688-0.082031-15.363-7.1445-15.449-15.781-0.16797-8.3906 7.2266-15.531 15.699-15.449 7.9727-0.33203 15.613 6.6445 15.449 15.613-0.082032 8.8047-7.0586 15.617-15.699 15.617zm0.83203-36.297c-11.543-0.33203-21.344 8.8867-21.344 20.68 0.082032 11.129 8.6367 20.434 20.68 20.68 11.129 0.25 20.598-9.3867 20.598-20.68s-8.9727-20.348-19.934-20.68zm-0.83203 36.297c-8.9688-0.082031-15.363-7.1445-15.449-15.781-0.16797-8.3906 7.2266-15.531 15.699-15.449 7.9727-0.33203 15.613 6.6445 15.449 15.613-0.082032 8.8047-7.0586 15.617-15.699 15.617zm0.83203-36.297c-11.543-0.33203-21.344 8.8867-21.344 20.68 0.082032 11.129 8.6367 20.434 20.68 20.68 11.129 0.25 20.598-9.3867 20.598-20.68s-8.9727-20.348-19.934-20.68zm-0.83203 36.297c-8.9688-0.082031-15.363-7.1445-15.449-15.781-0.16797-8.3906 7.2266-15.531 15.699-15.449 7.9727-0.33203 15.613 6.6445 15.449 15.613-0.082032 8.8047-7.0586 15.617-15.699 15.617zm0.83203-36.297c-11.543-0.33203-21.344 8.8867-21.344 20.68 0.082032 11.129 8.6367 20.434 20.68 20.68 11.129 0.25 20.598-9.3867 20.598-20.68s-8.9727-20.348-19.934-20.68zm-0.83203 36.297c-8.9688-0.082031-15.363-7.1445-15.449-15.781-0.16797-8.3906 7.2266-15.531 15.699-15.449 7.9727-0.33203 15.613 6.6445 15.449 15.613-0.082032 8.8047-7.0586 15.617-15.699 15.617zm0.83203-36.297c-11.543-0.33203-21.344 8.8867-21.344 20.68 0.082032 11.129 8.6367 20.434 20.68 20.68 11.129 0.25 20.598-9.3867 20.598-20.68s-8.9727-20.348-19.934-20.68zm-0.83203 36.297c-8.9688-0.082031-15.363-7.1445-15.449-15.781-0.16797-8.3906 7.2266-15.531 15.699-15.449 7.9727-0.33203 15.613 6.6445 15.449 15.613-0.082032 8.8047-7.0586 15.617-15.699 15.617zm0.83203-36.297c-11.543-0.33203-21.344 8.8867-21.344 20.68 0.082032 11.129 8.6367 20.434 20.68 20.68 11.129 0.25 20.598-9.3867 20.598-20.68s-8.9727-20.348-19.934-20.68zm-0.83203 36.297c-8.9688-0.082031-15.363-7.1445-15.449-15.781-0.16797-8.3906 7.2266-15.531 15.699-15.449 7.9727-0.33203 15.613 6.6445 15.449 15.613-0.082032 8.8047-7.0586 15.617-15.699 15.617zm0.83203-36.297c-11.543-0.33203-21.344 8.8867-21.344 20.68 0.082032 11.129 8.6367 20.434 20.68 20.68 11.129 0.25 20.598-9.3867 20.598-20.68s-8.9727-20.348-19.934-20.68zm-0.83203 36.297c-8.9688-0.082031-15.363-7.1445-15.449-15.781-0.16797-8.3906 7.2266-15.531 15.699-15.449 7.9727-0.33203 15.613 6.6445 15.449 15.613-0.082032 8.8047-7.0586 15.617-15.699 15.617zm0.83203-36.297c-11.543-0.33203-21.344 8.8867-21.344 20.68 0.082032 11.129 8.6367 20.434 20.68 20.68 11.129 0.25 20.598-9.3867 20.598-20.68s-8.9727-20.348-19.934-20.68zm-0.83203 36.297c-8.9688-0.082031-15.363-7.1445-15.449-15.781-0.16797-8.3906 7.2266-15.531 15.699-15.449 7.9727-0.33203 15.613 6.6445 15.449 15.613-0.082032 8.8047-7.0586 15.617-15.699 15.617zm0.83203-36.297c-11.543-0.33203-21.344 8.8867-21.344 20.68 0.082032 11.129 8.6367 20.434 20.68 20.68 11.129 0.25 20.598-9.3867 20.598-20.68s-8.9727-20.348-19.934-20.68zm-0.83203 36.297c-8.9688-0.082031-15.363-7.1445-15.449-15.781-0.16797-8.3906 7.2266-15.531 15.699-15.449 7.9727-0.33203 15.613 6.6445 15.449 15.613-0.082032 8.8047-7.0586 15.617-15.699 15.617zm0.83203-36.297c-11.543-0.33203-21.344 8.8867-21.344 20.68 0.082032 11.129 8.6367 20.434 20.68 20.68 11.129 0.25 20.598-9.3867 20.598-20.68s-8.9727-20.348-19.934-20.68zm-0.83203 36.297c-8.9688-0.082031-15.363-7.1445-15.449-15.781-0.16797-8.3906 7.2266-15.531 15.699-15.449 7.9727-0.33203 15.613 6.6445 15.449 15.613-0.082032 8.8047-7.0586 15.617-15.699 15.617zm0.83203-36.297c-11.543-0.33203-21.344 8.8867-21.344 20.68 0.082032 11.129 8.6367 20.434 20.68 20.68 11.129 0.25 20.598-9.3867 20.598-20.68s-8.9727-20.348-19.934-20.68zm-0.83203 36.297c-8.9688-0.082031-15.363-7.1445-15.449-15.781-0.16797-8.3906 7.2266-15.531 15.699-15.449 7.9727-0.33203 15.613 6.6445 15.449 15.613-0.082032 8.8047-7.0586 15.617-15.699 15.617zm0.83203-36.297c-11.543-0.33203-21.344 8.8867-21.344 20.68 0.082032 11.129 8.6367 20.434 20.68 20.68 11.129 0.25 20.598-9.3867 20.598-20.68s-8.9727-20.348-19.934-20.68zm-0.83203 36.297c-8.9688-0.082031-15.363-7.1445-15.449-15.781-0.16797-8.3906 7.2266-15.531 15.699-15.449 7.9727-0.33203 15.613 6.6445 15.449 15.613-0.082032 8.8047-7.0586 15.617-15.699 15.617zm0.83203-36.297c-11.543-0.33203-21.344 8.8867-21.344 20.68 0.082032 11.129 8.6367 20.434 20.68 20.68 11.129 0.25 20.598-9.3867 20.598-20.68s-8.9727-20.348-19.934-20.68zm-0.83203 36.297c-8.9688-0.082031-15.363-7.1445-15.449-15.781-0.16797-8.3906 7.2266-15.531 15.699-15.449 7.9727-0.33203 15.613 6.6445 15.449 15.613-0.082032 8.8047-7.0586 15.617-15.699 15.617zm0.83203-36.297c-11.543-0.33203-21.344 8.8867-21.344 20.68 0.082032 11.129 8.6367 20.434 20.68 20.68 11.129 0.25 20.598-9.3867 20.598-20.68s-8.9727-20.348-19.934-20.68zm-0.83203 36.297c-8.9688-0.082031-15.363-7.1445-15.449-15.781-0.16797-8.3906 7.2266-15.531 15.699-15.449 7.9727-0.33203 15.613 6.6445 15.449 15.613-0.082032 8.8047-7.0586 15.617-15.699 15.617zm0.83203-36.297c-11.543-0.33203-21.344 8.8867-21.344 20.68 0.082032 11.129 8.6367 20.434 20.68 20.68 11.129 0.25 20.598-9.3867 20.598-20.68s-8.9727-20.348-19.934-20.68zm-0.83203 36.297c-8.9688-0.082031-15.363-7.1445-15.449-15.781-0.16797-8.3906 7.2266-15.531 15.699-15.449 7.9727-0.33203 15.613 6.6445 15.449 15.613-0.082032 8.8047-7.0586 15.617-15.699 15.617zm0.83203-36.297c-11.543-0.33203-21.344 8.8867-21.344 20.68 0.082032 11.129 8.6367 20.434 20.68 20.68 11.129 0.25 20.598-9.3867 20.598-20.68s-8.9727-20.348-19.934-20.68zm-0.83203 36.297c-8.9688-0.082031-15.363-7.1445-15.449-15.781-0.16797-8.3906 7.2266-15.531 15.699-15.449 7.9727-0.33203 15.613 6.6445 15.449 15.613-0.082032 8.8047-7.0586 15.617-15.699 15.617zm0.83203-36.297c-11.543-0.33203-21.344 8.8867-21.344 20.68 0.082032 11.129 8.6367 20.434 20.68 20.68 11.129 0.25 20.598-9.3867 20.598-20.68s-8.9727-20.348-19.934-20.68zm-0.83203 36.297c-8.9688-0.082031-15.363-7.1445-15.449-15.781-0.16797-8.3906 7.2266-15.531 15.699-15.449 7.9727-0.33203 15.613 6.6445 15.449 15.613-0.082032 8.8047-7.0586 15.617-15.699 15.617z"/>
<text x="0.0" y="117.5" font-size="5.0" font-weight="bold" font-family="Arbeit Regular, Helvetica, Arial-Unicode, Arial, Sans-serif" fill="#000000">Created by Culai Lai</text><text x="0.0" y="122.5" font-size="5.0" font-weight="bold" font-family="Arbeit Regular, Helvetica, Arial-Unicode, Arial, Sans-serif" fill="#000000">from Noun Project</text></svg>